<svg xmlns="http://www.w3.org/2000/svg" viewBox="0 0 181 70">
<path d="M147.7.1h-.7c-19.4-.1-33.4 15.3-33.4 35 0 7.4 2 14.2 5.5 19.7-3.9 10.1-12.3 10.2-13.3 10.2H84.6c-1.2 0-2.2-1-2.2-2.2V35.6h18.4c.5 0 7.6-.4 7.7 9.4h1.3V22.3h-1.3c-.2 9.8-7.2 9.4-7.7 9.4H82.5V5.6h21.8c9.4.4 10 11 10 11s.8.1 1.1 0L115 1.7h.1-52.3c-.4 1.9-1.5 5.2-5 3.8l-.4-.1c-5.7-3-12.3-4.9-19.2-5C18.1.2.5 14.5 0 35.4c-.4 19.1 12.7 33.8 38.4 34.5 4.3.1 19.4-1.3 26-7.2l.1-.2V39s-.1-5.5 5.4-5.9c.7-.1 1.4-.1 2-.1v28.7s-.1 5.5-5.4 5.9c-1.2.2-3.3.1-3.3.1V69h52.9l4.3-12.2c6 8.2 15.6 13.3 26.9 13.2 19.5.2 33.7-15 33.7-34.8C181 15.5 167 .1 147.7.1zM45 31.7V33s1.6-.1 3.3.1c5.5.3 5.4 5.9 5.4 5.9V61.1C49.8 65.2 42.5 66 40.5 66c-15.8 0-28.3-11.4-28.6-30.6-.3-17 11-31.8 28.6-30.9 2.9.2 19.3 2.8 23.5 18.3.8.2.9-.2.9-.2L64.4 3c.6 0 1.3 0 2 .1 5.3.4 5.4 5.9 5.4 5.9v22.7H45zM148.6 66h-.2c-.5 0-1.5.2-2.4 0-13-.2-20.6-14.3-20.3-30.7v-.2c-.3-16.4 7.4-30.5 20.4-30.7H147.3c.2 0 1.3.1 1.3.1 12.9.2 20.5 14.3 20.2 30.7v.2c.4 16.3-7.3 30.4-20.2 30.6z" fill="#75AB1B"/>
</svg>